<svg width="27" height="38" viewBox="0 0 27 38" fill="none" xmlns="http://www.w3.org/2000/svg">
<path d="M13.6607 0.230469C6.47336 0.230469 0.625885 6.07794 0.625885 13.2653C0.625885 22.299 13.6735 37.7305 13.6735 37.7305C13.6735 37.7305 26.6955 21.8548 26.6955 13.2653C26.6955 6.07794 20.8483 0.230469 13.6607 0.230469ZM17.5936 17.0819C16.5091 18.1661 15.085 18.7083 13.6607 18.7083C12.2366 18.7083 10.812 18.1661 9.72806 17.0819C7.5594 14.9135 7.5594 11.385 9.72806 9.21637C10.7782 8.1658 12.175 7.58719 13.6607 7.58719C15.1464 7.58719 16.543 8.16603 17.5936 9.21637C19.7622 11.385 19.7622 14.9135 17.5936 17.0819Z" fill="#FBF3F0"/>
</svg>
